<?xml version="1.0" encoding="utf-8"?>
<!-- Generator: Adobe Illustrator 26.0.3, SVG Export Plug-In . SVG Version: 6.00 Build 0)  -->
<svg version="1.1" id="Ebene_1" xmlns="http://www.w3.org/2000/svg" xmlns:xlink="http://www.w3.org/1999/xlink" x="0px" y="0px"
	 viewBox="0 0 224 81" style="enable-background:new 0 0 224 81;" xml:space="preserve">
<style type="text/css">
	.st0{fill:#FFFFFF;}
</style>
<g>
	<path class="st0" d="M15.8,35.3c0-13.2,5.4-23.9,20.4-23.9c14.6,0,20,10,20,22.9v5.1H28.9c0.9,5.2,3.7,7.7,11.7,7.7
		c2.2,0,6.4,0,12.6-1.2v11.6c-6.8,1.4-10.6,1.4-13.9,1.4C18.9,58.9,15.8,44.6,15.8,35.3z M43.4,30.9c-0.3-5.4-2.5-7.7-7.4-7.7
		c-4.7,0-7,2.5-7.4,7.7H43.4z"/>
	<path class="st0" d="M107.7,12.3V72H69.2V60.2H95V49.4c-2.6,2.9-6.9,4.6-12.2,4.6C69,54.1,63.3,46.4,63.3,34V12.3H76v21
		c0,6.1,3.2,9,9.5,9s9.5-2.9,9.5-9v-21H107.7z"/>
	<path class="st0" d="M161.9,12.3L148.1,58h-19.3l-13.9-45.7h13.5l9.3,32.6h1.4l9.4-32.6C148.4,12.3,161.9,12.3,161.9,12.3z"/>
	<path class="st0" d="M165.6,43.6c0-7.6,5-15.3,15.6-15.3c6.8,0,10.2,2.2,12.1,5.2V23.5H170V12.3h36v33.7h5.9V58h-18.6v-4.4
		c-1.9,3.1-5.3,5.2-12.1,5.2C170.5,58.9,165.6,51.2,165.6,43.6z M193.4,43.6c0-2.7-1.8-5.1-7.5-5.1c-5.8,0-7.6,2.4-7.6,5.1
		s1.8,5.1,7.6,5.1C191.5,48.6,193.4,46.3,193.4,43.6z"/>
</g>
</svg>
